<mxfile host="app.diagrams.net" modified="2021-07-26T02:39:05.252Z" agent="5.0 (Macintosh; Intel Mac OS X 10_15_7) AppleWebKit/537.36 (KHTML, like Gecko) Chrome/91.0.4472.77 Safari/537.36" etag="BDpYhaIQNnv1y1j2akPM" version="14.9.2" type="github">
  <diagram id="oXRsvChQLhuID6rQ4ekO" name="Page-1">
    <mxGraphModel dx="1298" dy="724" grid="1" gridSize="10" guides="1" tooltips="1" connect="1" arrows="1" fold="1" page="1" pageScale="1" pageWidth="827" pageHeight="1169" math="0" shadow="0">
      <root>
        <mxCell id="0" />
        <mxCell id="1" parent="0" />
        <mxCell id="F2dWGVMII7QSXf1jzRB9-1" value="a" style="whiteSpace=wrap;html=1;aspect=fixed;fontSize=16;" parent="1" vertex="1">
          <mxGeometry x="100" y="140" width="50" height="50" as="geometry" />
        </mxCell>
        <mxCell id="F2dWGVMII7QSXf1jzRB9-8" value="c" style="whiteSpace=wrap;html=1;aspect=fixed;fontSize=16;" parent="1" vertex="1">
          <mxGeometry x="320" y="140" width="50" height="50" as="geometry" />
        </mxCell>
        <mxCell id="F2dWGVMII7QSXf1jzRB9-9" value="b" style="whiteSpace=wrap;html=1;aspect=fixed;fontSize=16;" parent="1" vertex="1">
          <mxGeometry x="210" y="80" width="50" height="50" as="geometry" />
        </mxCell>
        <mxCell id="F2dWGVMII7QSXf1jzRB9-10" value="c" style="whiteSpace=wrap;html=1;aspect=fixed;fontSize=16;" parent="1" vertex="1">
          <mxGeometry x="380" y="140" width="50" height="50" as="geometry" />
        </mxCell>
        <mxCell id="F2dWGVMII7QSXf1jzRB9-11" value="a" style="whiteSpace=wrap;html=1;aspect=fixed;fontSize=16;" parent="1" vertex="1">
          <mxGeometry x="680" y="110" width="50" height="50" as="geometry" />
        </mxCell>
        <mxCell id="F2dWGVMII7QSXf1jzRB9-12" value="b" style="whiteSpace=wrap;html=1;aspect=fixed;fontSize=16;" parent="1" vertex="1">
          <mxGeometry x="540" y="80" width="50" height="50" as="geometry" />
        </mxCell>
        <mxCell id="F2dWGVMII7QSXf1jzRB9-17" value="" style="shape=singleArrow;whiteSpace=wrap;html=1;fontSize=16;" parent="1" vertex="1">
          <mxGeometry x="230" y="210" width="60" height="20" as="geometry" />
        </mxCell>
        <mxCell id="13En-82cm2ADTIywIKQg-1" value="" style="shape=singleArrow;direction=west;whiteSpace=wrap;html=1;fontSize=16;" vertex="1" parent="1">
          <mxGeometry x="470" y="210" width="50" height="15" as="geometry" />
        </mxCell>
      </root>
    </mxGraphModel>
  </diagram>
</mxfile>
